HIERARCHY
ROOT hip
{
	OFFSET 0.000000 0.000000 0.000000 
	CHANNELS 6 Xposition Yposition Zposition Xrotation Zrotation Yrotation
	JOINT abdomen
	{
		OFFSET 0.000000 3.402643 0.000000 
		CHANNELS 3 Xrotation Zrotation Yrotation
		JOINT chest
		{
			OFFSET 0.000000 8.438565 -0.680529 
			CHANNELS 3 Xrotation Zrotation Yrotation
			JOINT neck
			{
				OFFSET 0.000000 10.207942 -0.272212 
				CHANNELS 3 Xrotation Zrotation Yrotation
				JOINT head
				{
					OFFSET 0.000000 3.130431 0.000000 
					CHANNELS 3 Xrotation Zrotation Yrotation
					End Site
					{
						OFFSET 0.000000 3.130435 0.000000 
					}
				}
			}
			JOINT lCollar
			{
				OFFSET 3.470700 6.669187 -0.816635 
				CHANNELS 3 Yrotation Zrotation Xrotation
				JOINT lShldr
				{
					OFFSET 3.198488 0.000000 0.000000 
					CHANNELS 3 Zrotation Yrotation Xrotation
					JOINT lForeArm
					{
						OFFSET 10.139888 0.000000 0.000000 
						CHANNELS 3 Yrotation Zrotation Xrotation
						JOINT lHand
						{
							OFFSET 8.370511 0.000000 0.000000 
							CHANNELS 3 Zrotation Yrotation Xrotation
							End Site
							{
								OFFSET 4.083176 0.000000 0.000000 
							}
						}
					}
				}
			}
			JOINT rCollar
			{
				OFFSET -3.470700 6.669187 -0.816635 
				CHANNELS 3 Yrotation Zrotation Xrotation
				JOINT rShldr
				{
					OFFSET -3.198488 0.000000 0.000000 
					CHANNELS 3 Zrotation Yrotation Xrotation
					JOINT rForeArm
					{
						OFFSET -10.139888 0.000000 0.000000 
						CHANNELS 3 Yrotation Zrotation Xrotation
						JOINT rHand
						{
							OFFSET -8.370511 0.000000 0.000000 
							CHANNELS 3 Zrotation Yrotation Xrotation
							End Site
							{
								OFFSET -4.083176 0.000000 0.000000 
							}
						}
					}
				}
			}
		}
	}
	JOINT lThigh
	{
		OFFSET 5.308129 -1.633274 1.361059 
		CHANNELS 3 Xrotation Zrotation Yrotation
		JOINT lShin
		{
			OFFSET -2.041588 -20.007561 0.000000 
			CHANNELS 3 Xrotation Zrotation Yrotation
			JOINT lFoot
			{
				OFFSET 0.000000 -19.190928 -1.224953 
				CHANNELS 3 Xrotation Yrotation Zrotation
				End Site
				{
					OFFSET 0.000000 -2.449906 4.627600 
				}
			}
		}
	}
	JOINT rThigh
	{
		OFFSET -5.308129 -1.633274 1.361059 
		CHANNELS 3 Xrotation Zrotation Yrotation
		JOINT rShin
		{
			OFFSET 2.041588 -20.007561 0.000000 
			CHANNELS 3 Xrotation Zrotation Yrotation
			JOINT rFoot
			{
				OFFSET 0.000000 -19.190928 -1.224953 
				CHANNELS 3 Xrotation Yrotation Zrotation
				End Site
				{
					OFFSET 0.000000 -2.449906 4.627600 
				}
			}
		}
	}
}
MOTION
Frames: 6
Frame Time: 0.033333
-1.444328 51.986488 3.772586 -4.238281 1.572266 48.574219 66.722481 -9.461835 -5.407546 -21.103516 6.738282 3.370287 51.063168 8.107644 2.471410 -95.205078 0.791016 54.531384 2.000000 -2.000000 0.000000 -61.992191 4.570313 -16.708984 -126.976234 1.823117 -2.674639 12.197665 27.642927 -4.791162 -2.000000 2.000000 0.000000 98.730469 -37.490231 -42.607422 124.149384 -1.520221 -3.174748 24.431114 -53.192955 -17.056908 -29.460033 28.600330 5.213946 61.170834 -2.669857 -4.581947 17.846886 10.011083 -5.121124 -0.443186 -13.518864 -33.087315 26.376173 4.113990 2.212758 3.685835 -4.981919 2.708822 
-2.888642 52.569458 7.545139 -3.876953 1.210938 49.472660 67.610359 -14.931142 -2.719188 -22.812500 8.544923 2.314453 51.063168 8.107644 2.471410 -93.505859 -3.691406 54.784531 2.000000 -2.000000 0.000000 -76.572266 9.853516 -21.718752 -118.010315 1.504789 -2.597455 10.886579 32.745747 -12.432699 -2.000000 2.000000 0.000000 97.607422 -31.953125 -37.900391 122.551559 -1.522875 -2.959783 6.922307 -62.689568 -18.342602 -32.055805 26.293402 10.747384 62.953472 -2.690845 -4.604708 12.982932 9.749292 -5.042765 -3.906585 -12.509932 -33.585907 34.505344 4.170902 2.790667 13.247880 -4.344748 5.691554 
-4.043353 53.065784 11.267527 -3.359375 0.869141 50.390770 67.975769 -19.223595 0.075253 -23.320313 9.453125 1.269531 51.063168 8.107644 2.471410 -92.451172 -7.402343 55.419922 2.000000 -2.000000 0.000000 -89.746094 13.662109 -29.042973 -110.468826 1.051938 -2.815390 8.916084 37.141136 -18.786898 -2.000000 2.000000 0.000000 92.529297 -29.521484 -31.855467 121.670242 -1.663880 -2.889711 -18.046543 -67.897141 -3.237663 -34.233055 24.027100 15.060716 63.471310 -2.642247 -4.647764 9.299360 9.085426 -5.363904 -4.932797 -10.247494 -34.315834 36.617588 4.053011 2.750492 24.866329 -3.288584 8.653584 
-4.747482 53.491196 14.891103 -3.173828 0.869141 51.103661 67.923546 -22.268269 3.727144 -20.683594 8.300782 -0.214844 51.063168 8.107644 2.471410 -93.349609 -9.521483 56.258156 2.000000 -2.000000 0.000000 -97.480469 14.785155 -35.427197 -106.261513 0.346922 -3.165558 7.842500 40.345554 -19.796408 -2.000000 2.000000 0.000000 77.910156 -32.470703 -17.622431 125.720505 -1.834136 -2.821641 -47.840080 -60.814316 29.166567 -33.958672 20.813046 18.080931 61.001511 -2.827338 -4.367469 6.797055 7.094182 -4.792076 -2.832882 -6.469711 -35.476646 34.137966 4.174154 2.567663 30.759924 -2.255235 10.559355 
-5.203513 53.766937 18.457861 -3.173828 1.044922 51.445488 67.489258 -24.142250 7.687150 -16.523438 6.220703 -1.806641 51.063168 8.107644 2.471410 -94.052734 -10.712890 58.232426 2.000000 -2.000000 0.000000 -97.382805 18.271484 -37.037952 -108.723244 0.442725 -3.200434 7.409561 40.908833 -8.461890 -2.000000 2.000000 0.000000 57.158203 -34.580078 -0.263673 132.215302 -2.076468 -2.523139 -56.220333 -45.709824 49.678772 -29.482260 14.619069 17.440723 51.150581 -3.595238 -4.035841 7.677558 4.482593 -3.872712 0.516591 -2.869708 -36.713047 29.908390 4.418259 2.621088 37.742321 -0.169097 12.028888 
-5.667021 53.057899 22.053553 -3.349609 1.572266 51.582302 67.419701 -24.048092 8.876655 -14.101563 4.746094 -2.617188 51.063168 8.107644 2.471410 -92.451172 -12.285155 63.222656 2.000000 -2.000000 0.000000 -92.031250 24.453123 -37.109379 -115.392632 1.028486 -2.882477 7.358285 39.785381 9.454074 -2.000000 2.000000 0.000000 46.933594 -36.455078 5.488281 134.674713 -2.167042 -2.479514 -49.650555 -39.138950 55.726105 -21.792976 7.595053 13.546461 37.085907 -4.249950 -3.247755 10.863870 2.241773 -2.954359 -0.276494 -6.351635 -37.905273 35.748444 4.203537 2.425429 39.979637 1.277316 14.218030 
